PathFileType	4	(X/Y/Z)	Patient4_TMGait_0pt8_01_right_37.trc.trc
DataRate	CameraRate	NumFrames	NumMarkers	Units	OrigDataRate	OrigDataStartFrame	OrigNumFrames
89.171974522293	89.171974522293	4	33	mm	89.171974522293	106	       141
Frame#	Time	Sacral			L.Shoulder			Chest			R.Shoulder			Neck			R.ASIS			L.ASIS			R.Thigh.Superior			R.Thigh.Lateral			R.Thigh.Inferior			R.Patella			L.Thigh.Superior			L.Thigh.Lateral			L.Thigh.Inferior			L.Patella			L.Shank.Superior			L.Shank.Lateral			L.Shank.Inferior			R.Shank.Superior			R.Shank.Lateral			R.Shank.Inferior			R.Heel			R.Midfoot.Superior			R.Midfoot.Lateral			R.Toe			L.Heel			L.Midfoot.Lateral			L.Midfoot.Superior			L.Toe			L.Elbow			L.Wrist			R.Elbow			R.Wrist			
		X1	Y1	Z1	X2	Y2	Z2	X3	Y3	Z3	X4	Y4	Z4	X5	Y5	Z5	X6	Y6	Z6	X7	Y7	Z7	X8	Y8	Z8	X9	Y9	Z9	X10	Y10	Z10	X11	Y11	Z11	X12	Y12	Z12	X13	Y13	Z13	X14	Y14	Z14	X15	Y15	Z15	X16	Y16	Z16	X17	Y17	Z17	X18	Y18	Z18	X19	Y19	Z19	X20	Y20	Z20	X21	Y21	Z21	X22	Y22	Z22	X23	Y23	Z23	X24	Y24	Z24	X25	Y25	Z25	X26	Y26	Z26	X27	Y27	Z27	X28	Y28	Z28	X29	Y29	Z29	X30	Y30	Z30	X31	Y31	Z31	X32	Y32	Z32	X33	Y33	Z33	

106	42.677500000000	828.350637120519	1010.996767796738	403.450599525351	1034.823689019759	1435.030621287853	228.942590497060	1125.077814613505	1364.486159685475	396.831739581081	1032.917036933612	1441.326975839254	564.993099802028	1012.726772427509	1497.208560844038	384.355874116173	1051.652802923898	948.965464195598	528.885586727308	1048.837276065315	964.926463458042	254.387343048911	1151.892409468200	804.916994028564	499.122045228106	1133.473959592441	680.810297909803	577.846856486666	1229.528173682892	654.853249639778	501.321401735554	1266.539539578364	546.075226079641	525.840614574116	1080.763833281282	747.851999893395	282.497439085089	981.131572234370	638.771839511670	223.345614262451	1058.018947392461	554.563580655043	286.387944894471	1051.930084063031	487.542224330746	297.654990557488	1026.522717579119	417.194075813547	290.410676963783	934.928133652904	302.106548723161	245.275205767312	987.674648094042	192.845071592568	317.817543724586	1202.826424443960	459.314515656738	530.769057516275	1088.354138161742	399.956896143563	588.643691537698	1093.007996776915	290.199098871682	539.154957587223	905.690786785269	195.401890270368	505.593145693715	1080.707853549903	167.982851607534	554.440963570849	971.237747355724	149.200431684853	583.292191211154	1161.600243901914	68.061207995815	585.925564477885	861.536637924580	38.045875693790	371.626507705436	929.663433281144	34.653958323616	285.663182920248	1013.688899471691	96.651827201039	307.310704788348	1140.341114171850	47.842826590809	270.152881655059	1091.863538853788	1100.927928926634	80.904048975057	1275.128408662030	912.772568704378	83.804953967452	964.307248369914	1096.659834016622	677.529569291292	1086.105365137350	866.150730747265	678.373613808566	
107	42.688714285714	827.748298842242	1010.638847202750	402.423669708656	1035.717917571234	1435.303312764360	229.357077305345	1124.891358948610	1364.045339937667	397.493494023252	1031.932585476563	1440.311713064453	565.415329627594	1013.002388752776	1496.922370709178	384.799910441776	1050.773489336948	948.787937993054	528.621818097838	1048.549131875125	964.654425396991	253.942932461166	1151.567588689323	806.368940895641	498.636066446867	1134.382511280349	682.091290406204	577.624602040538	1230.326797482788	656.773729732123	501.013854403769	1269.042002840635	550.069977419130	525.868439740884	1078.281165359064	746.642976702975	282.633352552791	977.475821233772	638.451669180522	223.093156697554	1052.865166355799	553.482744925748	286.502146897025	1045.999807881035	486.655544698951	297.844158042258	1020.208110827538	416.467382709727	290.574907593669	927.987236239412	301.987864320565	245.126750179579	979.570354703804	192.391663807515	317.954720214008	1209.739394640576	461.306618847455	531.402081925598	1099.695267718553	395.379756225511	590.316805233276	1110.866928938723	285.920447642200	541.243409577717	929.781053676542	180.109228645306	509.066781018443	1106.226318783458	162.666034316782	557.143576011495	998.163932571679	137.865323977272	586.619694272665	1192.672619217092	67.635646512174	588.589130281692	852.517645112010	38.043504549804	371.618052409696	920.632956317814	34.650266621184	285.681866419305	1004.750040531208	96.557330407056	307.425289196201	1131.367508993040	47.632292451551	270.178724499988	1098.224148513914	1104.038249986843	78.650834748510	1291.607310276600	926.192505452224	82.835823180523	957.341498179827	1096.341984925263	676.904849551622	1059.019264292953	856.178880184936	685.213915287305	
108	42.699928571429	827.403099728764	1010.249242698853	401.511494281616	1036.645201748764	1435.512923376059	229.874158152559	1124.841640990999	1363.545490423224	398.196771319080	1031.168972686113	1439.250228937381	565.934382539186	1013.337466694028	1496.557500305724	385.346269481428	1050.088192283081	948.405665754274	528.426202793451	1048.451018096632	964.304178260225	253.591097429818	1150.951754498304	806.937195953993	498.363907743960	1134.364837220774	682.519387806405	577.519924018622	1230.153899129117	657.499840718890	500.889340465363	1270.206011630048	553.101952657639	526.037003913047	1075.869034767134	745.375445675949	282.804263761655	973.816569708357	638.130284124218	222.885059138552	1047.684307544844	552.394106167321	286.608718367026	1040.048602403648	485.768677526242	297.980964241048	1013.833423346096	415.748858027141	290.715239655304	920.962754631303	301.890168424885	244.969212754743	971.421255587359	191.954433466259	318.058116599882	1215.593746451928	462.689086857199	532.172270764482	1110.680292560708	390.173458471769	592.141472763815	1128.737201826863	281.505155997708	543.435682194715	955.088361939207	164.483545280675	512.477195944138	1132.293064950011	157.652383621782	559.915857667604	1026.110119788080	126.598894414065	589.916915027065	1224.235621586691	68.224184865589	591.426502877603	843.506456096092	38.059100059483	371.602832460009	911.602515441543	34.646222934362	285.699570463595	995.814748702374	96.461003884707	307.523276969277	1122.393587957690	47.396912064523	270.206917536096	1103.970649141339	1107.038432457266	76.648104664031	1306.936318894902	940.161373088154	82.290533937443	950.671614202080	1096.204854593156	676.369093526835	1032.144742872059	848.621722601602	691.570789805879	
109	42.711142857143	827.335805369390	1009.809798692096	400.718111869690	1037.588732409504	1435.642699226769	230.492859832798	1124.930405531654	1362.981730448008	398.936009382553	1030.640119413516	1438.149284029373	566.544734988922	1013.729453032267	1496.107401220871	385.990128325383	1049.642721733426	947.834714597333	528.300146078407	1048.564292457351	963.881568713826	253.330231919637	1150.070113547774	806.567005578438	498.302777349653	1133.427652904799	682.055243824787	577.562721291581	1229.005875480253	656.977184542391	500.948908079677	1270.046446088584	555.106525095170	526.318525027366	1073.541232317160	744.044581768943	282.987292827625	970.140077048722	637.817669377147	222.712918374125	1042.467164107913	551.300581972414	286.694802677380	1034.057478268516	484.880238724197	298.054815010747	1007.382731672537	415.050862534882	290.820261782994	913.836150947951	301.825203846305	244.798016567234	963.223035910363	191.544073315817	318.120081910575	1220.358665751982	463.463560351059	533.058478375464	1121.266592172271	384.454414468276	594.091061668639	1146.466678933243	277.120582636348	545.668889304166	981.465370795627	148.887350592714	515.750436856522	1158.675053553034	153.185431259589	562.678153423664	1054.878325683166	115.695857125436	593.079612294716	1255.954799952487	70.023515834368	594.282876897254	834.500698320874	38.096452792315	371.582954762807	902.572806803220	34.644257968433	285.715768309543	986.884122275429	96.360985185872	307.599853044879	1113.420650708165	47.131303638724	270.235174482307	1109.159444004508	1109.880704152577	74.900142160899	1321.062696168370	954.550651821836	82.155254370232	944.178712320621	1096.333666461359	675.980016733802	1005.875107645241	843.438598162293	697.374253550885	
